<mxfile host="Electron" agent="Mozilla/5.0 (Windows NT 10.0; Win64; x64) AppleWebKit/537.36 (KHTML, like Gecko) draw.io/24.7.5 Chrome/126.0.6478.183 Electron/31.3.0 Safari/537.36" version="24.7.5" pages="2">
  <diagram id="51-FQfyo7nBuKfRD5Ra7" name="Прецеденты все">
    <mxGraphModel dx="2261" dy="2005" grid="1" gridSize="10" guides="1" tooltips="1" connect="1" arrows="1" fold="1" page="1" pageScale="1" pageWidth="827" pageHeight="1169" math="0" shadow="0">
      <root>
        <mxCell id="0" />
        <mxCell id="1" parent="0" />
        <mxCell id="ZRGMgTDK0uKQOCcNGdat-2" value="Авторизация" style="ellipse;whiteSpace=wrap;html=1;" parent="1" vertex="1">
          <mxGeometry y="320" width="120" height="40" as="geometry" />
        </mxCell>
        <mxCell id="ZRGMgTDK0uKQOCcNGdat-3" value="Регистрация" style="ellipse;whiteSpace=wrap;html=1;" parent="1" vertex="1">
          <mxGeometry y="430" width="120" height="40" as="geometry" />
        </mxCell>
        <mxCell id="ZRGMgTDK0uKQOCcNGdat-4" value="Выход" style="ellipse;whiteSpace=wrap;html=1;" parent="1" vertex="1">
          <mxGeometry y="370" width="120" height="40" as="geometry" />
        </mxCell>
        <mxCell id="ZRGMgTDK0uKQOCcNGdat-5" value="" style="endArrow=none;html=1;rounded=0;edgeStyle=orthogonalEdgeStyle;curved=1;" parent="1" source="ZRGMgTDK0uKQOCcNGdat-34" target="ZRGMgTDK0uKQOCcNGdat-2" edge="1">
          <mxGeometry width="50" height="50" relative="1" as="geometry">
            <mxPoint x="430" y="400" as="sourcePoint" />
            <mxPoint x="480" y="350" as="targetPoint" />
          </mxGeometry>
        </mxCell>
        <mxCell id="ZRGMgTDK0uKQOCcNGdat-6" value="" style="endArrow=none;html=1;rounded=0;edgeStyle=orthogonalEdgeStyle;curved=1;" parent="1" source="ZRGMgTDK0uKQOCcNGdat-1" target="ZRGMgTDK0uKQOCcNGdat-4" edge="1">
          <mxGeometry width="50" height="50" relative="1" as="geometry">
            <mxPoint x="430" y="400" as="sourcePoint" />
            <mxPoint x="480" y="350" as="targetPoint" />
            <Array as="points">
              <mxPoint x="170" y="190" />
              <mxPoint x="170" y="390" />
            </Array>
          </mxGeometry>
        </mxCell>
        <mxCell id="ZRGMgTDK0uKQOCcNGdat-7" value="" style="endArrow=none;html=1;rounded=0;edgeStyle=orthogonalEdgeStyle;curved=1;" parent="1" source="ZRGMgTDK0uKQOCcNGdat-3" target="ZRGMgTDK0uKQOCcNGdat-34" edge="1">
          <mxGeometry width="50" height="50" relative="1" as="geometry">
            <mxPoint x="430" y="400" as="sourcePoint" />
            <mxPoint x="480" y="350" as="targetPoint" />
            <Array as="points">
              <mxPoint x="-90" y="450" />
              <mxPoint x="-90" y="190" />
            </Array>
          </mxGeometry>
        </mxCell>
        <mxCell id="ZRGMgTDK0uKQOCcNGdat-8" value="Загрузить изображение в альбом" style="ellipse;whiteSpace=wrap;html=1;fillColor=#d5e8d4;strokeColor=#82b366;" parent="1" vertex="1">
          <mxGeometry x="215" y="300" width="100" height="60" as="geometry" />
        </mxCell>
        <mxCell id="ZRGMgTDK0uKQOCcNGdat-9" value="Создать альбом" style="ellipse;whiteSpace=wrap;html=1;fillColor=#fff2cc;strokeColor=#d6b656;" parent="1" vertex="1">
          <mxGeometry x="180" y="460" width="120" height="40" as="geometry" />
        </mxCell>
        <mxCell id="ZRGMgTDK0uKQOCcNGdat-11" value="Создать теги" style="ellipse;whiteSpace=wrap;html=1;fillColor=#d0cee2;strokeColor=#56517e;" parent="1" vertex="1">
          <mxGeometry x="420" y="310" width="120" height="40" as="geometry" />
        </mxCell>
        <mxCell id="ZRGMgTDK0uKQOCcNGdat-12" value="Назначить теги изображению" style="ellipse;whiteSpace=wrap;html=1;fillColor=#d0cee2;strokeColor=#56517e;" parent="1" vertex="1">
          <mxGeometry x="414" y="210" width="120" height="40" as="geometry" />
        </mxCell>
        <mxCell id="ZRGMgTDK0uKQOCcNGdat-13" value="" style="endArrow=none;html=1;rounded=0;" parent="1" source="ZRGMgTDK0uKQOCcNGdat-1" target="ZRGMgTDK0uKQOCcNGdat-8" edge="1">
          <mxGeometry width="50" height="50" relative="1" as="geometry">
            <mxPoint x="430" y="400" as="sourcePoint" />
            <mxPoint x="480" y="350" as="targetPoint" />
          </mxGeometry>
        </mxCell>
        <mxCell id="ZRGMgTDK0uKQOCcNGdat-14" value="" style="endArrow=none;html=1;rounded=0;edgeStyle=orthogonalEdgeStyle;curved=1;entryX=0.5;entryY=0;entryDx=0;entryDy=0;" parent="1" source="ZRGMgTDK0uKQOCcNGdat-1" target="ZRGMgTDK0uKQOCcNGdat-9" edge="1">
          <mxGeometry width="50" height="50" relative="1" as="geometry">
            <mxPoint x="430" y="400" as="sourcePoint" />
            <mxPoint x="480" y="350" as="targetPoint" />
            <Array as="points">
              <mxPoint x="210" y="190" />
              <mxPoint x="210" y="460" />
            </Array>
          </mxGeometry>
        </mxCell>
        <mxCell id="ZRGMgTDK0uKQOCcNGdat-15" value="" style="endArrow=classic;html=1;rounded=0;dashed=1;dashPattern=8 8;" parent="1" source="ZRGMgTDK0uKQOCcNGdat-8" target="ZRGMgTDK0uKQOCcNGdat-9" edge="1">
          <mxGeometry width="50" height="50" relative="1" as="geometry">
            <mxPoint x="430" y="400" as="sourcePoint" />
            <mxPoint x="480" y="350" as="targetPoint" />
          </mxGeometry>
        </mxCell>
        <mxCell id="ZRGMgTDK0uKQOCcNGdat-16" value="include" style="edgeLabel;html=1;align=center;verticalAlign=middle;resizable=0;points=[];" parent="ZRGMgTDK0uKQOCcNGdat-15" vertex="1" connectable="0">
          <mxGeometry x="-0.0923" y="1" relative="1" as="geometry">
            <mxPoint as="offset" />
          </mxGeometry>
        </mxCell>
        <mxCell id="ZRGMgTDK0uKQOCcNGdat-18" value="" style="endArrow=none;html=1;rounded=0;" parent="1" source="ZRGMgTDK0uKQOCcNGdat-1" target="ZRGMgTDK0uKQOCcNGdat-12" edge="1">
          <mxGeometry width="50" height="50" relative="1" as="geometry">
            <mxPoint x="430" y="400" as="sourcePoint" />
            <mxPoint x="480" y="350" as="targetPoint" />
          </mxGeometry>
        </mxCell>
        <mxCell id="ZRGMgTDK0uKQOCcNGdat-19" value="" style="endArrow=none;html=1;rounded=0;" parent="1" source="ZRGMgTDK0uKQOCcNGdat-1" target="ZRGMgTDK0uKQOCcNGdat-11" edge="1">
          <mxGeometry width="50" height="50" relative="1" as="geometry">
            <mxPoint x="430" y="400" as="sourcePoint" />
            <mxPoint x="480" y="350" as="targetPoint" />
          </mxGeometry>
        </mxCell>
        <mxCell id="ZRGMgTDK0uKQOCcNGdat-20" value="" style="endArrow=classic;html=1;rounded=0;dashed=1;dashPattern=8 8;" parent="1" source="ZRGMgTDK0uKQOCcNGdat-12" target="ZRGMgTDK0uKQOCcNGdat-11" edge="1">
          <mxGeometry width="50" height="50" relative="1" as="geometry">
            <mxPoint x="310" y="360" as="sourcePoint" />
            <mxPoint x="360" y="310" as="targetPoint" />
          </mxGeometry>
        </mxCell>
        <mxCell id="ZRGMgTDK0uKQOCcNGdat-21" value="include" style="edgeLabel;html=1;align=center;verticalAlign=middle;resizable=0;points=[];" parent="ZRGMgTDK0uKQOCcNGdat-20" vertex="1" connectable="0">
          <mxGeometry x="-0.1529" relative="1" as="geometry">
            <mxPoint as="offset" />
          </mxGeometry>
        </mxCell>
        <mxCell id="ZRGMgTDK0uKQOCcNGdat-22" value="Доступ к чужому альбому" style="ellipse;whiteSpace=wrap;html=1;fillColor=#b0e3e6;strokeColor=#0e8088;" parent="1" vertex="1">
          <mxGeometry x="-140" y="-50" width="120" height="80" as="geometry" />
        </mxCell>
        <mxCell id="ZRGMgTDK0uKQOCcNGdat-23" value="Пожаловаться на альбом" style="ellipse;whiteSpace=wrap;html=1;fillColor=#fad9d5;strokeColor=#ae4132;" parent="1" vertex="1">
          <mxGeometry x="80" y="30" width="120" height="40" as="geometry" />
        </mxCell>
        <mxCell id="ZRGMgTDK0uKQOCcNGdat-24" value="Пожаловаться на изображение" style="ellipse;whiteSpace=wrap;html=1;fillColor=#fad9d5;strokeColor=#ae4132;" parent="1" vertex="1">
          <mxGeometry x="-40" y="90" width="120" height="40" as="geometry" />
        </mxCell>
        <mxCell id="ZRGMgTDK0uKQOCcNGdat-26" value="" style="endArrow=none;html=1;rounded=0;" parent="1" source="ZRGMgTDK0uKQOCcNGdat-1" target="ZRGMgTDK0uKQOCcNGdat-22" edge="1">
          <mxGeometry width="50" height="50" relative="1" as="geometry">
            <mxPoint x="300" y="110" as="sourcePoint" />
            <mxPoint x="350" y="60" as="targetPoint" />
          </mxGeometry>
        </mxCell>
        <mxCell id="ZRGMgTDK0uKQOCcNGdat-27" value="" style="endArrow=none;html=1;rounded=0;" parent="1" source="ZRGMgTDK0uKQOCcNGdat-1" target="ZRGMgTDK0uKQOCcNGdat-24" edge="1">
          <mxGeometry width="50" height="50" relative="1" as="geometry">
            <mxPoint x="300" y="110" as="sourcePoint" />
            <mxPoint x="350" y="60" as="targetPoint" />
          </mxGeometry>
        </mxCell>
        <mxCell id="ZRGMgTDK0uKQOCcNGdat-28" value="" style="endArrow=none;html=1;rounded=0;" parent="1" source="ZRGMgTDK0uKQOCcNGdat-23" target="ZRGMgTDK0uKQOCcNGdat-1" edge="1">
          <mxGeometry width="50" height="50" relative="1" as="geometry">
            <mxPoint x="180" y="120" as="sourcePoint" />
            <mxPoint x="139.64285714285734" y="170" as="targetPoint" />
          </mxGeometry>
        </mxCell>
        <mxCell id="ZRGMgTDK0uKQOCcNGdat-29" value="" style="endArrow=classic;html=1;rounded=0;dashed=1;dashPattern=8 8;" parent="1" source="ZRGMgTDK0uKQOCcNGdat-23" target="ZRGMgTDK0uKQOCcNGdat-22" edge="1">
          <mxGeometry width="50" height="50" relative="1" as="geometry">
            <mxPoint x="180" y="120" as="sourcePoint" />
            <mxPoint x="230" y="70" as="targetPoint" />
          </mxGeometry>
        </mxCell>
        <mxCell id="ZRGMgTDK0uKQOCcNGdat-31" value="include" style="edgeLabel;html=1;align=center;verticalAlign=middle;resizable=0;points=[];" parent="ZRGMgTDK0uKQOCcNGdat-29" vertex="1" connectable="0">
          <mxGeometry x="0.014" y="-1" relative="1" as="geometry">
            <mxPoint as="offset" />
          </mxGeometry>
        </mxCell>
        <mxCell id="ZRGMgTDK0uKQOCcNGdat-30" value="" style="endArrow=classic;html=1;rounded=0;dashed=1;dashPattern=8 8;" parent="1" source="ZRGMgTDK0uKQOCcNGdat-24" target="ZRGMgTDK0uKQOCcNGdat-22" edge="1">
          <mxGeometry width="50" height="50" relative="1" as="geometry">
            <mxPoint x="180" y="120" as="sourcePoint" />
            <mxPoint x="230" y="70" as="targetPoint" />
          </mxGeometry>
        </mxCell>
        <mxCell id="ZRGMgTDK0uKQOCcNGdat-33" value="include" style="edgeLabel;html=1;align=center;verticalAlign=middle;resizable=0;points=[];" parent="ZRGMgTDK0uKQOCcNGdat-30" vertex="1" connectable="0">
          <mxGeometry x="-0.1857" y="-1" relative="1" as="geometry">
            <mxPoint as="offset" />
          </mxGeometry>
        </mxCell>
        <mxCell id="ZRGMgTDK0uKQOCcNGdat-34" value="Гость" style="shape=umlActor;verticalLabelPosition=bottom;verticalAlign=top;html=1;outlineConnect=0;" parent="1" vertex="1">
          <mxGeometry x="-180" y="160" width="30" height="60" as="geometry" />
        </mxCell>
        <mxCell id="HD56RRknN_QBPDEzP8vD-1" value="" style="endArrow=classic;html=1;rounded=0;entryX=0.5;entryY=0.5;entryDx=0;entryDy=0;entryPerimeter=0;" parent="1" source="ZRGMgTDK0uKQOCcNGdat-34" target="ZRGMgTDK0uKQOCcNGdat-1" edge="1">
          <mxGeometry width="50" height="50" relative="1" as="geometry">
            <mxPoint x="220" y="250" as="sourcePoint" />
            <mxPoint x="270" y="200" as="targetPoint" />
          </mxGeometry>
        </mxCell>
        <mxCell id="HD56RRknN_QBPDEzP8vD-2" value="Альбомы" style="rounded=0;whiteSpace=wrap;html=1;fillColor=#fff2cc;strokeColor=#d6b656;" parent="1" vertex="1">
          <mxGeometry x="-360" y="200" width="120" height="40" as="geometry" />
        </mxCell>
        <mxCell id="HD56RRknN_QBPDEzP8vD-3" value="Теги" style="rounded=0;whiteSpace=wrap;html=1;fillColor=#d0cee2;strokeColor=#56517e;" parent="1" vertex="1">
          <mxGeometry x="-360" y="240" width="120" height="40" as="geometry" />
        </mxCell>
        <mxCell id="HD56RRknN_QBPDEzP8vD-4" value="Доступы" style="rounded=0;whiteSpace=wrap;html=1;fillColor=#b0e3e6;strokeColor=#0e8088;" parent="1" vertex="1">
          <mxGeometry x="-360" y="280" width="120" height="40" as="geometry" />
        </mxCell>
        <mxCell id="HD56RRknN_QBPDEzP8vD-5" value="Пользователи" style="rounded=0;whiteSpace=wrap;html=1;fillColor=#dae8fc;strokeColor=#6c8ebf;" parent="1" vertex="1">
          <mxGeometry x="-360" y="160" width="120" height="40" as="geometry" />
        </mxCell>
        <mxCell id="HD56RRknN_QBPDEzP8vD-6" value="Жалобы" style="rounded=0;whiteSpace=wrap;html=1;fillColor=#f8cecc;strokeColor=#b85450;" parent="1" vertex="1">
          <mxGeometry x="-360" y="120" width="120" height="40" as="geometry" />
        </mxCell>
        <mxCell id="HD56RRknN_QBPDEzP8vD-7" value="Картинки" style="rounded=0;whiteSpace=wrap;html=1;fillColor=#d5e8d4;strokeColor=#82b366;" parent="1" vertex="1">
          <mxGeometry x="-360" y="320" width="120" height="40" as="geometry" />
        </mxCell>
        <mxCell id="HD56RRknN_QBPDEzP8vD-8" value="Администратор" style="shape=umlActor;verticalLabelPosition=bottom;verticalAlign=top;html=1;outlineConnect=0;" parent="1" vertex="1">
          <mxGeometry x="600" y="160" width="30" height="60" as="geometry" />
        </mxCell>
        <mxCell id="HD56RRknN_QBPDEzP8vD-9" value="" style="endArrow=classic;html=1;rounded=0;" parent="1" source="ZRGMgTDK0uKQOCcNGdat-1" target="HD56RRknN_QBPDEzP8vD-8" edge="1">
          <mxGeometry width="50" height="50" relative="1" as="geometry">
            <mxPoint x="550" y="200" as="sourcePoint" />
            <mxPoint x="600" y="150" as="targetPoint" />
          </mxGeometry>
        </mxCell>
        <mxCell id="HD56RRknN_QBPDEzP8vD-10" value="Обработка жалобы" style="ellipse;whiteSpace=wrap;html=1;fillColor=#f8cecc;strokeColor=#b85450;" parent="1" vertex="1">
          <mxGeometry x="555" y="290" width="120" height="40" as="geometry" />
        </mxCell>
        <mxCell id="HD56RRknN_QBPDEzP8vD-11" value="Просмотр жалоб" style="ellipse;whiteSpace=wrap;html=1;fillColor=#f8cecc;strokeColor=#b85450;" parent="1" vertex="1">
          <mxGeometry x="610" y="400" width="120" height="40" as="geometry" />
        </mxCell>
        <mxCell id="HD56RRknN_QBPDEzP8vD-12" value="Управление своими доступами" style="ellipse;whiteSpace=wrap;html=1;fillColor=#b0e3e6;strokeColor=#0e8088;" parent="1" vertex="1">
          <mxGeometry x="30" y="-90" width="120" height="80" as="geometry" />
        </mxCell>
        <mxCell id="HD56RRknN_QBPDEzP8vD-13" value="" style="endArrow=none;html=1;rounded=0;edgeStyle=orthogonalEdgeStyle;curved=1;" parent="1" source="ZRGMgTDK0uKQOCcNGdat-1" target="HD56RRknN_QBPDEzP8vD-12" edge="1">
          <mxGeometry width="50" height="50" relative="1" as="geometry">
            <mxPoint x="170" y="100" as="sourcePoint" />
            <mxPoint x="220" y="50" as="targetPoint" />
            <Array as="points">
              <mxPoint x="250" y="-50" />
            </Array>
          </mxGeometry>
        </mxCell>
        <mxCell id="HD56RRknN_QBPDEzP8vD-14" value="Удаление альбома" style="ellipse;whiteSpace=wrap;html=1;fillColor=#fff2cc;strokeColor=#d6b656;" parent="1" vertex="1">
          <mxGeometry x="600" y="510" width="120" height="40" as="geometry" />
        </mxCell>
        <mxCell id="HD56RRknN_QBPDEzP8vD-15" value="Удаление картинок" style="ellipse;whiteSpace=wrap;html=1;fillColor=#d5e8d4;strokeColor=#82b366;" parent="1" vertex="1">
          <mxGeometry x="760" y="510" width="120" height="40" as="geometry" />
        </mxCell>
        <mxCell id="HD56RRknN_QBPDEzP8vD-16" value="" style="endArrow=none;html=1;rounded=0;" parent="1" source="HD56RRknN_QBPDEzP8vD-8" target="HD56RRknN_QBPDEzP8vD-10" edge="1">
          <mxGeometry width="50" height="50" relative="1" as="geometry">
            <mxPoint x="490" y="190" as="sourcePoint" />
            <mxPoint x="540" y="140" as="targetPoint" />
          </mxGeometry>
        </mxCell>
        <mxCell id="HD56RRknN_QBPDEzP8vD-17" value="" style="endArrow=none;html=1;rounded=0;edgeStyle=orthogonalEdgeStyle;curved=1;" parent="1" source="HD56RRknN_QBPDEzP8vD-8" target="HD56RRknN_QBPDEzP8vD-11" edge="1">
          <mxGeometry width="50" height="50" relative="1" as="geometry">
            <mxPoint x="490" y="190" as="sourcePoint" />
            <mxPoint x="540" y="140" as="targetPoint" />
            <Array as="points">
              <mxPoint x="540" y="190" />
              <mxPoint x="540" y="400" />
            </Array>
          </mxGeometry>
        </mxCell>
        <mxCell id="HD56RRknN_QBPDEzP8vD-19" value="" style="endArrow=classic;html=1;rounded=0;dashed=1;dashPattern=8 8;" parent="1" source="HD56RRknN_QBPDEzP8vD-10" target="HD56RRknN_QBPDEzP8vD-11" edge="1">
          <mxGeometry width="50" height="50" relative="1" as="geometry">
            <mxPoint x="430" y="200" as="sourcePoint" />
            <mxPoint x="480" y="150" as="targetPoint" />
          </mxGeometry>
        </mxCell>
        <mxCell id="HD56RRknN_QBPDEzP8vD-20" value="include" style="edgeLabel;html=1;align=center;verticalAlign=middle;resizable=0;points=[];" parent="HD56RRknN_QBPDEzP8vD-19" vertex="1" connectable="0">
          <mxGeometry x="-0.1424" y="-2" relative="1" as="geometry">
            <mxPoint as="offset" />
          </mxGeometry>
        </mxCell>
        <mxCell id="HD56RRknN_QBPDEzP8vD-21" value="" style="endArrow=classic;html=1;rounded=0;dashed=1;dashPattern=8 8;" parent="1" source="HD56RRknN_QBPDEzP8vD-11" target="HD56RRknN_QBPDEzP8vD-14" edge="1">
          <mxGeometry width="50" height="50" relative="1" as="geometry">
            <mxPoint x="490" y="290" as="sourcePoint" />
            <mxPoint x="540" y="240" as="targetPoint" />
          </mxGeometry>
        </mxCell>
        <mxCell id="HD56RRknN_QBPDEzP8vD-24" value="extend" style="edgeLabel;html=1;align=center;verticalAlign=middle;resizable=0;points=[];" parent="HD56RRknN_QBPDEzP8vD-21" vertex="1" connectable="0">
          <mxGeometry x="-0.0745" y="-1" relative="1" as="geometry">
            <mxPoint as="offset" />
          </mxGeometry>
        </mxCell>
        <mxCell id="HD56RRknN_QBPDEzP8vD-22" value="" style="endArrow=classic;html=1;rounded=0;dashed=1;dashPattern=8 8;" parent="1" source="HD56RRknN_QBPDEzP8vD-11" target="HD56RRknN_QBPDEzP8vD-15" edge="1">
          <mxGeometry width="50" height="50" relative="1" as="geometry">
            <mxPoint x="490" y="290" as="sourcePoint" />
            <mxPoint x="540" y="240" as="targetPoint" />
          </mxGeometry>
        </mxCell>
        <mxCell id="HD56RRknN_QBPDEzP8vD-23" value="extend" style="edgeLabel;html=1;align=center;verticalAlign=middle;resizable=0;points=[];" parent="HD56RRknN_QBPDEzP8vD-22" vertex="1" connectable="0">
          <mxGeometry x="-0.1989" y="-1" relative="1" as="geometry">
            <mxPoint as="offset" />
          </mxGeometry>
        </mxCell>
        <mxCell id="HD56RRknN_QBPDEzP8vD-27" value="Выдать предупреждение&lt;div&gt;пользователю&lt;/div&gt;" style="ellipse;whiteSpace=wrap;html=1;fillColor=#ffe6cc;strokeColor=#d79b00;" parent="1" vertex="1">
          <mxGeometry x="770" y="610" width="120" height="80" as="geometry" />
        </mxCell>
        <mxCell id="HD56RRknN_QBPDEzP8vD-28" value="" style="endArrow=classic;html=1;rounded=0;dashed=1;dashPattern=8 8;" parent="1" source="HD56RRknN_QBPDEzP8vD-14" target="HD56RRknN_QBPDEzP8vD-27" edge="1">
          <mxGeometry width="50" height="50" relative="1" as="geometry">
            <mxPoint x="750" y="500" as="sourcePoint" />
            <mxPoint x="800" y="450" as="targetPoint" />
          </mxGeometry>
        </mxCell>
        <mxCell id="HD56RRknN_QBPDEzP8vD-30" value="include" style="edgeLabel;html=1;align=center;verticalAlign=middle;resizable=0;points=[];" parent="HD56RRknN_QBPDEzP8vD-28" vertex="1" connectable="0">
          <mxGeometry x="-0.0987" y="-3" relative="1" as="geometry">
            <mxPoint as="offset" />
          </mxGeometry>
        </mxCell>
        <mxCell id="HD56RRknN_QBPDEzP8vD-29" value="" style="endArrow=classic;html=1;rounded=0;dashed=1;dashPattern=8 8;" parent="1" source="HD56RRknN_QBPDEzP8vD-15" target="HD56RRknN_QBPDEzP8vD-27" edge="1">
          <mxGeometry width="50" height="50" relative="1" as="geometry">
            <mxPoint x="750" y="500" as="sourcePoint" />
            <mxPoint x="800" y="450" as="targetPoint" />
          </mxGeometry>
        </mxCell>
        <mxCell id="HD56RRknN_QBPDEzP8vD-31" value="include" style="edgeLabel;html=1;align=center;verticalAlign=middle;resizable=0;points=[];" parent="HD56RRknN_QBPDEzP8vD-29" vertex="1" connectable="0">
          <mxGeometry x="-0.1175" relative="1" as="geometry">
            <mxPoint as="offset" />
          </mxGeometry>
        </mxCell>
        <mxCell id="HD56RRknN_QBPDEzP8vD-32" value="Предупреждения" style="rounded=0;whiteSpace=wrap;html=1;fillColor=#ffe6cc;strokeColor=#d79b00;" parent="1" vertex="1">
          <mxGeometry x="-360" y="360" width="120" height="40" as="geometry" />
        </mxCell>
        <mxCell id="HD56RRknN_QBPDEzP8vD-33" value="Просмотр заблокированных пользователей" style="ellipse;whiteSpace=wrap;html=1;fillColor=#dae8fc;strokeColor=#6c8ebf;" parent="1" vertex="1">
          <mxGeometry x="690" y="240" width="130" height="60" as="geometry" />
        </mxCell>
        <mxCell id="HD56RRknN_QBPDEzP8vD-34" value="" style="endArrow=none;html=1;rounded=0;" parent="1" source="HD56RRknN_QBPDEzP8vD-8" target="HD56RRknN_QBPDEzP8vD-33" edge="1">
          <mxGeometry width="50" height="50" relative="1" as="geometry">
            <mxPoint x="360" y="280" as="sourcePoint" />
            <mxPoint x="410" y="230" as="targetPoint" />
          </mxGeometry>
        </mxCell>
        <mxCell id="HD56RRknN_QBPDEzP8vD-35" value="Просмотр своих предупреждений" style="ellipse;whiteSpace=wrap;html=1;fillColor=#ffe6cc;strokeColor=#d79b00;" parent="1" vertex="1">
          <mxGeometry x="260" y="-40" width="120" height="80" as="geometry" />
        </mxCell>
        <mxCell id="HD56RRknN_QBPDEzP8vD-36" value="" style="endArrow=none;html=1;rounded=0;" parent="1" source="ZRGMgTDK0uKQOCcNGdat-1" target="HD56RRknN_QBPDEzP8vD-35" edge="1">
          <mxGeometry width="50" height="50" relative="1" as="geometry">
            <mxPoint x="290" y="160" as="sourcePoint" />
            <mxPoint x="340" y="110" as="targetPoint" />
          </mxGeometry>
        </mxCell>
        <mxCell id="HD56RRknN_QBPDEzP8vD-37" value="Система" style="shape=umlActor;verticalLabelPosition=bottom;verticalAlign=top;html=1;outlineConnect=0;" parent="1" vertex="1">
          <mxGeometry x="460" y="-20" width="30" height="60" as="geometry" />
        </mxCell>
        <mxCell id="HD56RRknN_QBPDEzP8vD-38" value="Информация о блокировке пользователя" style="ellipse;whiteSpace=wrap;html=1;fillColor=#dae8fc;strokeColor=#6c8ebf;" parent="1" vertex="1">
          <mxGeometry x="340" y="80" width="120" height="80" as="geometry" />
        </mxCell>
        <mxCell id="HD56RRknN_QBPDEzP8vD-39" value="Выдача предупреждений" style="ellipse;whiteSpace=wrap;html=1;fillColor=#ffe6cc;strokeColor=#d79b00;" parent="1" vertex="1">
          <mxGeometry x="480" y="80" width="120" height="80" as="geometry" />
        </mxCell>
        <mxCell id="HD56RRknN_QBPDEzP8vD-40" value="" style="endArrow=none;html=1;rounded=0;" parent="1" source="HD56RRknN_QBPDEzP8vD-37" target="HD56RRknN_QBPDEzP8vD-38" edge="1">
          <mxGeometry width="50" height="50" relative="1" as="geometry">
            <mxPoint x="330" y="300" as="sourcePoint" />
            <mxPoint x="380" y="250" as="targetPoint" />
          </mxGeometry>
        </mxCell>
        <mxCell id="HD56RRknN_QBPDEzP8vD-41" value="" style="endArrow=none;html=1;rounded=0;" parent="1" source="HD56RRknN_QBPDEzP8vD-37" target="HD56RRknN_QBPDEzP8vD-39" edge="1">
          <mxGeometry width="50" height="50" relative="1" as="geometry">
            <mxPoint x="330" y="300" as="sourcePoint" />
            <mxPoint x="380" y="250" as="targetPoint" />
          </mxGeometry>
        </mxCell>
        <mxCell id="HD56RRknN_QBPDEzP8vD-42" value="Управление своими тегами" style="ellipse;whiteSpace=wrap;html=1;fillColor=#d0cee2;strokeColor=#56517e;" parent="1" vertex="1">
          <mxGeometry x="380" y="370" width="130" height="60" as="geometry" />
        </mxCell>
        <mxCell id="HD56RRknN_QBPDEzP8vD-43" value="" style="endArrow=none;html=1;rounded=0;" parent="1" source="HD56RRknN_QBPDEzP8vD-42" target="ZRGMgTDK0uKQOCcNGdat-1" edge="1">
          <mxGeometry width="50" height="50" relative="1" as="geometry">
            <mxPoint x="430" y="330" as="sourcePoint" />
            <mxPoint x="480" y="280" as="targetPoint" />
          </mxGeometry>
        </mxCell>
        <mxCell id="HD56RRknN_QBPDEzP8vD-44" value="Управление своими альбомами" style="ellipse;whiteSpace=wrap;html=1;fillColor=#fff2cc;strokeColor=#d6b656;" parent="1" vertex="1">
          <mxGeometry x="20" y="480" width="130" height="50" as="geometry" />
        </mxCell>
        <mxCell id="HD56RRknN_QBPDEzP8vD-45" value="" style="endArrow=none;html=1;rounded=0;edgeStyle=orthogonalEdgeStyle;curved=1;" parent="1" source="HD56RRknN_QBPDEzP8vD-44" target="ZRGMgTDK0uKQOCcNGdat-1" edge="1">
          <mxGeometry width="50" height="50" relative="1" as="geometry">
            <mxPoint x="230" y="300" as="sourcePoint" />
            <mxPoint x="280" y="250" as="targetPoint" />
            <Array as="points">
              <mxPoint x="180" y="190" />
            </Array>
          </mxGeometry>
        </mxCell>
        <mxCell id="HD56RRknN_QBPDEzP8vD-46" value="Управление своими изображениями" style="ellipse;whiteSpace=wrap;html=1;fillColor=#d5e8d4;strokeColor=#82b366;" parent="1" vertex="1">
          <mxGeometry x="320" y="450" width="110" height="70" as="geometry" />
        </mxCell>
        <mxCell id="HD56RRknN_QBPDEzP8vD-47" value="" style="endArrow=none;html=1;rounded=0;edgeStyle=orthogonalEdgeStyle;curved=1;" parent="1" source="HD56RRknN_QBPDEzP8vD-46" target="ZRGMgTDK0uKQOCcNGdat-1" edge="1">
          <mxGeometry width="50" height="50" relative="1" as="geometry">
            <mxPoint x="160" y="330" as="sourcePoint" />
            <mxPoint x="210" y="280" as="targetPoint" />
            <Array as="points">
              <mxPoint x="350" y="300" />
              <mxPoint x="280" y="300" />
            </Array>
          </mxGeometry>
        </mxCell>
        <mxCell id="ZRGMgTDK0uKQOCcNGdat-1" value="Пользователь" style="shape=umlActor;verticalLabelPosition=bottom;verticalAlign=top;html=1;outlineConnect=0;" parent="1" vertex="1">
          <mxGeometry x="250" y="160" width="30" height="60" as="geometry" />
        </mxCell>
      </root>
    </mxGraphModel>
  </diagram>
  <diagram name="Прецеденты все" id="FqUEvsR6kyCOIJ71oj-K">
    <mxGraphModel dx="1687" dy="2153" grid="1" gridSize="10" guides="1" tooltips="1" connect="1" arrows="1" fold="1" page="1" pageScale="1" pageWidth="827" pageHeight="1169" math="0" shadow="0">
      <root>
        <mxCell id="0" />
        <mxCell id="1" parent="0" />
        <mxCell id="SWkFZKtT8qhRzF46knFM-69" value="" style="group" vertex="1" connectable="0" parent="1">
          <mxGeometry x="330" y="790" width="370" height="210" as="geometry" />
        </mxCell>
        <mxCell id="SWkFZKtT8qhRzF46knFM-12" value="" style="group;fillColor=default;" vertex="1" connectable="0" parent="SWkFZKtT8qhRzF46knFM-69">
          <mxGeometry width="370" height="210" as="geometry" />
        </mxCell>
        <mxCell id="SWkFZKtT8qhRzF46knFM-4" value="" style="rounded=1;whiteSpace=wrap;html=1;fillColor=#dae8fc;strokeColor=#6c8ebf;" vertex="1" parent="SWkFZKtT8qhRzF46knFM-12">
          <mxGeometry width="370" height="210" as="geometry" />
        </mxCell>
        <mxCell id="SWkFZKtT8qhRzF46knFM-9" value="&lt;b&gt;Общее&lt;/b&gt;" style="text;html=1;align=center;verticalAlign=middle;whiteSpace=wrap;rounded=0;" vertex="1" parent="SWkFZKtT8qhRzF46knFM-12">
          <mxGeometry x="121" y="150" width="128" height="42" as="geometry" />
        </mxCell>
        <mxCell id="SWkFZKtT8qhRzF46knFM-5" value="Регистрация" style="ellipse;whiteSpace=wrap;html=1;" vertex="1" parent="SWkFZKtT8qhRzF46knFM-12">
          <mxGeometry x="10" y="50" width="115.33" height="40" as="geometry" />
        </mxCell>
        <mxCell id="SWkFZKtT8qhRzF46knFM-6" value="Авторизация" style="ellipse;whiteSpace=wrap;html=1;" vertex="1" parent="SWkFZKtT8qhRzF46knFM-12">
          <mxGeometry x="140" y="50" width="105.33" height="40" as="geometry" />
        </mxCell>
        <mxCell id="SWkFZKtT8qhRzF46knFM-24" value="Выход" style="ellipse;whiteSpace=wrap;html=1;" vertex="1" parent="SWkFZKtT8qhRzF46knFM-69">
          <mxGeometry x="260" y="50" width="95.33" height="40" as="geometry" />
        </mxCell>
        <mxCell id="M1r4ebx0J2dWL1zyFGnm-1" value="Пользователь" style="shape=umlActor;verticalLabelPosition=bottom;verticalAlign=top;html=1;outlineConnect=0;" vertex="1" parent="1">
          <mxGeometry x="590" y="170" width="30" height="60" as="geometry" />
        </mxCell>
        <mxCell id="M1r4ebx0J2dWL1zyFGnm-2" value="Система" style="shape=umlActor;verticalLabelPosition=bottom;verticalAlign=top;html=1;outlineConnect=0;" vertex="1" parent="1">
          <mxGeometry x="1080" y="390" width="30" height="60" as="geometry" />
        </mxCell>
        <mxCell id="M1r4ebx0J2dWL1zyFGnm-3" value="Администратор" style="shape=umlActor;verticalLabelPosition=bottom;verticalAlign=top;html=1;outlineConnect=0;" vertex="1" parent="1">
          <mxGeometry x="710" y="410" width="30" height="60" as="geometry" />
        </mxCell>
        <mxCell id="SWkFZKtT8qhRzF46knFM-17" value="" style="group;fillColor=default;" vertex="1" connectable="0" parent="1">
          <mxGeometry x="250" y="-510" width="150" height="210" as="geometry" />
        </mxCell>
        <mxCell id="SWkFZKtT8qhRzF46knFM-18" value="" style="rounded=1;whiteSpace=wrap;html=1;fillColor=#f8cecc;strokeColor=#b85450;" vertex="1" parent="SWkFZKtT8qhRzF46knFM-17">
          <mxGeometry width="150" height="210" as="geometry" />
        </mxCell>
        <mxCell id="SWkFZKtT8qhRzF46knFM-19" value="&lt;b&gt;Альбомы&lt;/b&gt;" style="text;html=1;align=center;verticalAlign=middle;whiteSpace=wrap;rounded=0;" vertex="1" parent="SWkFZKtT8qhRzF46knFM-17">
          <mxGeometry x="45" y="10" width="60" height="30" as="geometry" />
        </mxCell>
        <mxCell id="SWkFZKtT8qhRzF46knFM-39" value="Создание альбома" style="ellipse;whiteSpace=wrap;html=1;" vertex="1" parent="SWkFZKtT8qhRzF46knFM-17">
          <mxGeometry x="15" y="45" width="115" height="45" as="geometry" />
        </mxCell>
        <mxCell id="SWkFZKtT8qhRzF46knFM-44" value="Просмотр альбомов" style="ellipse;whiteSpace=wrap;html=1;" vertex="1" parent="SWkFZKtT8qhRzF46knFM-17">
          <mxGeometry x="15" y="100" width="115" height="45" as="geometry" />
        </mxCell>
        <mxCell id="SWkFZKtT8qhRzF46knFM-56" value="Удаление альбома" style="ellipse;whiteSpace=wrap;html=1;" vertex="1" parent="SWkFZKtT8qhRzF46knFM-17">
          <mxGeometry x="15" y="160" width="115" height="45" as="geometry" />
        </mxCell>
        <mxCell id="SWkFZKtT8qhRzF46knFM-20" value="" style="group;fillColor=default;" vertex="1" connectable="0" parent="1">
          <mxGeometry x="880" y="-30" width="170" height="280" as="geometry" />
        </mxCell>
        <mxCell id="SWkFZKtT8qhRzF46knFM-26" value="" style="group" vertex="1" connectable="0" parent="SWkFZKtT8qhRzF46knFM-20">
          <mxGeometry width="150" height="280" as="geometry" />
        </mxCell>
        <mxCell id="SWkFZKtT8qhRzF46knFM-21" value="" style="rounded=1;whiteSpace=wrap;html=1;fillColor=#dae8fc;strokeColor=#6c8ebf;" vertex="1" parent="SWkFZKtT8qhRzF46knFM-26">
          <mxGeometry width="150" height="280" as="geometry" />
        </mxCell>
        <mxCell id="SWkFZKtT8qhRzF46knFM-22" value="&lt;b&gt;Доступ на альбом&lt;/b&gt;" style="text;html=1;align=center;verticalAlign=middle;whiteSpace=wrap;rounded=0;" vertex="1" parent="SWkFZKtT8qhRzF46knFM-26">
          <mxGeometry x="12.5" y="12.666666666666666" width="125" height="38" as="geometry" />
        </mxCell>
        <mxCell id="SWkFZKtT8qhRzF46knFM-38" value="Создание доступа" style="ellipse;whiteSpace=wrap;html=1;" vertex="1" parent="SWkFZKtT8qhRzF46knFM-26">
          <mxGeometry x="20" y="220" width="110" height="46.67" as="geometry" />
        </mxCell>
        <mxCell id="SWkFZKtT8qhRzF46knFM-50" value="Просмотр доступов" style="ellipse;whiteSpace=wrap;html=1;" vertex="1" parent="SWkFZKtT8qhRzF46knFM-26">
          <mxGeometry x="20" y="110" width="110" height="46.67" as="geometry" />
        </mxCell>
        <mxCell id="SWkFZKtT8qhRzF46knFM-63" value="Получение доступа" style="ellipse;whiteSpace=wrap;html=1;" vertex="1" parent="SWkFZKtT8qhRzF46knFM-26">
          <mxGeometry x="20" y="50.67" width="110" height="46.67" as="geometry" />
        </mxCell>
        <mxCell id="SWkFZKtT8qhRzF46knFM-27" value="" style="group;fillColor=default;" vertex="1" connectable="0" parent="1">
          <mxGeometry x="250" y="-260" width="150" height="230" as="geometry" />
        </mxCell>
        <mxCell id="SWkFZKtT8qhRzF46knFM-28" value="" style="rounded=1;whiteSpace=wrap;html=1;fillColor=#dae8fc;strokeColor=#6c8ebf;" vertex="1" parent="SWkFZKtT8qhRzF46knFM-27">
          <mxGeometry width="150" height="230" as="geometry" />
        </mxCell>
        <mxCell id="SWkFZKtT8qhRzF46knFM-29" value="&lt;b&gt;Картинки&lt;/b&gt;" style="text;html=1;align=center;verticalAlign=middle;whiteSpace=wrap;rounded=0;" vertex="1" parent="SWkFZKtT8qhRzF46knFM-27">
          <mxGeometry x="45" y="10" width="60" height="30" as="geometry" />
        </mxCell>
        <mxCell id="SWkFZKtT8qhRzF46knFM-48" value="Загрузка картинок" style="ellipse;whiteSpace=wrap;html=1;" vertex="1" parent="SWkFZKtT8qhRzF46knFM-27">
          <mxGeometry x="10" y="150" width="120" height="60" as="geometry" />
        </mxCell>
        <mxCell id="SWkFZKtT8qhRzF46knFM-49" value="Просмотр картинок" style="ellipse;whiteSpace=wrap;html=1;" vertex="1" parent="SWkFZKtT8qhRzF46knFM-27">
          <mxGeometry x="15" y="50" width="120" height="60" as="geometry" />
        </mxCell>
        <mxCell id="SWkFZKtT8qhRzF46knFM-30" value="" style="group;fillColor=default;" vertex="1" connectable="0" parent="1">
          <mxGeometry x="810" y="-340" width="250" height="270" as="geometry" />
        </mxCell>
        <mxCell id="SWkFZKtT8qhRzF46knFM-31" value="" style="rounded=1;whiteSpace=wrap;html=1;fillColor=#dae8fc;strokeColor=#6c8ebf;" vertex="1" parent="SWkFZKtT8qhRzF46knFM-30">
          <mxGeometry width="250" height="270" as="geometry" />
        </mxCell>
        <mxCell id="SWkFZKtT8qhRzF46knFM-32" value="&lt;b&gt;Жалобы&lt;/b&gt;" style="text;html=1;align=center;verticalAlign=middle;whiteSpace=wrap;rounded=0;" vertex="1" parent="SWkFZKtT8qhRzF46knFM-30">
          <mxGeometry x="75" y="10" width="100" height="30" as="geometry" />
        </mxCell>
        <mxCell id="SWkFZKtT8qhRzF46knFM-37" value="Создание жалобы" style="ellipse;whiteSpace=wrap;html=1;" vertex="1" parent="SWkFZKtT8qhRzF46knFM-30">
          <mxGeometry x="25" y="40" width="200" height="40" as="geometry" />
        </mxCell>
        <mxCell id="SWkFZKtT8qhRzF46knFM-55" value="Просмотр жалобы" style="ellipse;whiteSpace=wrap;html=1;" vertex="1" parent="SWkFZKtT8qhRzF46knFM-30">
          <mxGeometry x="25" y="90" width="200" height="40" as="geometry" />
        </mxCell>
        <mxCell id="SWkFZKtT8qhRzF46knFM-71" value="Оповещение пользователя о поступлении жалобы" style="ellipse;whiteSpace=wrap;html=1;" vertex="1" parent="SWkFZKtT8qhRzF46knFM-30">
          <mxGeometry x="20.83" y="150" width="208.33333333333334" height="50" as="geometry" />
        </mxCell>
        <mxCell id="SWkFZKtT8qhRzF46knFM-34" value="" style="group;fillColor=default;" vertex="1" connectable="0" parent="1">
          <mxGeometry x="250" y="10" width="150" height="270" as="geometry" />
        </mxCell>
        <mxCell id="SWkFZKtT8qhRzF46knFM-35" value="" style="rounded=1;whiteSpace=wrap;html=1;fillColor=#dae8fc;strokeColor=#6c8ebf;" vertex="1" parent="SWkFZKtT8qhRzF46knFM-34">
          <mxGeometry width="150" height="270" as="geometry" />
        </mxCell>
        <mxCell id="SWkFZKtT8qhRzF46knFM-36" value="&lt;b&gt;Теги&lt;/b&gt;" style="text;html=1;align=center;verticalAlign=middle;whiteSpace=wrap;rounded=0;" vertex="1" parent="SWkFZKtT8qhRzF46knFM-34">
          <mxGeometry x="45" y="15.333333333333334" width="60" height="46" as="geometry" />
        </mxCell>
        <mxCell id="SWkFZKtT8qhRzF46knFM-46" value="Добавление тега к картинке" style="ellipse;whiteSpace=wrap;html=1;" vertex="1" parent="SWkFZKtT8qhRzF46knFM-34">
          <mxGeometry x="20" y="61.33" width="110" height="50" as="geometry" />
        </mxCell>
        <mxCell id="SWkFZKtT8qhRzF46knFM-47" value="Просмотр тегов" style="ellipse;whiteSpace=wrap;html=1;" vertex="1" parent="SWkFZKtT8qhRzF46knFM-34">
          <mxGeometry x="20" y="200" width="110" height="50" as="geometry" />
        </mxCell>
        <mxCell id="SWkFZKtT8qhRzF46knFM-45" value="Создание тега" style="ellipse;whiteSpace=wrap;html=1;" vertex="1" parent="SWkFZKtT8qhRzF46knFM-34">
          <mxGeometry x="20" y="134.5" width="110" height="50" as="geometry" />
        </mxCell>
        <mxCell id="SWkFZKtT8qhRzF46knFM-57" value="" style="group;fillColor=default;" vertex="1" connectable="0" parent="1">
          <mxGeometry x="850" y="300" width="150" height="240" as="geometry" />
        </mxCell>
        <mxCell id="SWkFZKtT8qhRzF46knFM-58" value="" style="rounded=1;whiteSpace=wrap;html=1;fillColor=#dae8fc;strokeColor=#6c8ebf;" vertex="1" parent="SWkFZKtT8qhRzF46knFM-57">
          <mxGeometry width="150" height="240" as="geometry" />
        </mxCell>
        <mxCell id="SWkFZKtT8qhRzF46knFM-59" value="&lt;b&gt;Пользователи&lt;/b&gt;" style="text;html=1;align=center;verticalAlign=middle;whiteSpace=wrap;rounded=0;" vertex="1" parent="SWkFZKtT8qhRzF46knFM-57">
          <mxGeometry x="45" y="10" width="60" height="30" as="geometry" />
        </mxCell>
        <mxCell id="SWkFZKtT8qhRzF46knFM-60" value="Просмотр заблокированных пользователей" style="ellipse;whiteSpace=wrap;html=1;" vertex="1" parent="SWkFZKtT8qhRzF46knFM-57">
          <mxGeometry x="15" y="40" width="125" height="60" as="geometry" />
        </mxCell>
        <mxCell id="SWkFZKtT8qhRzF46knFM-70" value="Оповещение пользователя о блокировки" style="ellipse;whiteSpace=wrap;html=1;" vertex="1" parent="SWkFZKtT8qhRzF46knFM-57">
          <mxGeometry x="17.5" y="120" width="122.5" height="80" as="geometry" />
        </mxCell>
        <mxCell id="SWkFZKtT8qhRzF46knFM-73" value="" style="endArrow=none;html=1;rounded=0;edgeStyle=orthogonalEdgeStyle;curved=1;" edge="1" parent="1" source="M1r4ebx0J2dWL1zyFGnm-1" target="SWkFZKtT8qhRzF46knFM-48">
          <mxGeometry width="50" height="50" relative="1" as="geometry">
            <mxPoint x="640" y="220" as="sourcePoint" />
            <mxPoint x="690" y="170" as="targetPoint" />
            <Array as="points">
              <mxPoint x="605" />
              <mxPoint x="320" />
            </Array>
          </mxGeometry>
        </mxCell>
        <mxCell id="SWkFZKtT8qhRzF46knFM-74" value="" style="endArrow=classic;html=1;rounded=0;dashed=1;dashPattern=8 8;edgeStyle=orthogonalEdgeStyle;curved=1;exitX=0;exitY=0.5;exitDx=0;exitDy=0;" edge="1" parent="1" source="SWkFZKtT8qhRzF46knFM-48" target="SWkFZKtT8qhRzF46knFM-39">
          <mxGeometry width="50" height="50" relative="1" as="geometry">
            <mxPoint x="570" y="-170" as="sourcePoint" />
            <mxPoint x="620" y="-220" as="targetPoint" />
            <Array as="points">
              <mxPoint x="220" y="-80" />
              <mxPoint x="220" y="-442" />
            </Array>
          </mxGeometry>
        </mxCell>
        <mxCell id="SWkFZKtT8qhRzF46knFM-75" value="include" style="edgeLabel;html=1;align=center;verticalAlign=middle;resizable=0;points=[];" vertex="1" connectable="0" parent="SWkFZKtT8qhRzF46knFM-74">
          <mxGeometry x="-0.0597" y="1" relative="1" as="geometry">
            <mxPoint as="offset" />
          </mxGeometry>
        </mxCell>
        <mxCell id="SWkFZKtT8qhRzF46knFM-80" value="" style="endArrow=classic;html=1;rounded=0;edgeStyle=orthogonalEdgeStyle;curved=1;" edge="1" parent="1" source="M1r4ebx0J2dWL1zyFGnm-3" target="M1r4ebx0J2dWL1zyFGnm-1">
          <mxGeometry width="50" height="50" relative="1" as="geometry">
            <mxPoint x="560" y="290" as="sourcePoint" />
            <mxPoint x="610" y="240" as="targetPoint" />
            <Array as="points">
              <mxPoint x="660" y="440" />
              <mxPoint x="660" y="200" />
            </Array>
          </mxGeometry>
        </mxCell>
        <mxCell id="SWkFZKtT8qhRzF46knFM-84" value="" style="endArrow=none;html=1;rounded=0;" edge="1" parent="1" source="M1r4ebx0J2dWL1zyFGnm-2" target="SWkFZKtT8qhRzF46knFM-70">
          <mxGeometry width="50" height="50" relative="1" as="geometry">
            <mxPoint x="520" y="370" as="sourcePoint" />
            <mxPoint x="570" y="320" as="targetPoint" />
          </mxGeometry>
        </mxCell>
        <mxCell id="SWkFZKtT8qhRzF46knFM-87" value="" style="endArrow=none;html=1;rounded=0;edgeStyle=orthogonalEdgeStyle;curved=1;" edge="1" parent="1" source="SWkFZKtT8qhRzF46knFM-47" target="M1r4ebx0J2dWL1zyFGnm-1">
          <mxGeometry width="50" height="50" relative="1" as="geometry">
            <mxPoint x="520" y="270" as="sourcePoint" />
            <mxPoint x="570" y="220" as="targetPoint" />
          </mxGeometry>
        </mxCell>
        <mxCell id="SWkFZKtT8qhRzF46knFM-90" value="" style="endArrow=classic;html=1;rounded=0;edgeStyle=orthogonalEdgeStyle;curved=1;dashed=1;dashPattern=8 8;entryX=0;entryY=0.5;entryDx=0;entryDy=0;" edge="1" parent="1" source="SWkFZKtT8qhRzF46knFM-46" target="SWkFZKtT8qhRzF46knFM-48">
          <mxGeometry width="50" height="50" relative="1" as="geometry">
            <mxPoint x="520" y="-120" as="sourcePoint" />
            <mxPoint x="570" y="-170" as="targetPoint" />
            <Array as="points">
              <mxPoint x="220" y="96" />
              <mxPoint x="220" y="-80" />
            </Array>
          </mxGeometry>
        </mxCell>
        <mxCell id="SWkFZKtT8qhRzF46knFM-91" value="include" style="edgeLabel;html=1;align=center;verticalAlign=middle;resizable=0;points=[];" vertex="1" connectable="0" parent="SWkFZKtT8qhRzF46knFM-90">
          <mxGeometry x="0.0864" relative="1" as="geometry">
            <mxPoint as="offset" />
          </mxGeometry>
        </mxCell>
        <mxCell id="SWkFZKtT8qhRzF46knFM-92" value="" style="endArrow=none;html=1;rounded=0;edgeStyle=orthogonalEdgeStyle;curved=1;" edge="1" parent="1" source="SWkFZKtT8qhRzF46knFM-45" target="M1r4ebx0J2dWL1zyFGnm-1">
          <mxGeometry width="50" height="50" relative="1" as="geometry">
            <mxPoint x="450" y="410" as="sourcePoint" />
            <mxPoint x="500" y="360" as="targetPoint" />
          </mxGeometry>
        </mxCell>
        <mxCell id="SWkFZKtT8qhRzF46knFM-94" value="" style="endArrow=none;html=1;rounded=0;edgeStyle=orthogonalEdgeStyle;curved=1;exitX=0.5;exitY=0;exitDx=0;exitDy=0;exitPerimeter=0;" edge="1" parent="1" source="M1r4ebx0J2dWL1zyFGnm-1" target="SWkFZKtT8qhRzF46knFM-49">
          <mxGeometry width="50" height="50" relative="1" as="geometry">
            <mxPoint x="580" y="330" as="sourcePoint" />
            <mxPoint x="630" y="280" as="targetPoint" />
            <Array as="points">
              <mxPoint x="605" y="-110" />
              <mxPoint x="325" y="-110" />
            </Array>
          </mxGeometry>
        </mxCell>
        <mxCell id="SWkFZKtT8qhRzF46knFM-95" value="" style="endArrow=none;html=1;rounded=0;" edge="1" parent="1" source="M1r4ebx0J2dWL1zyFGnm-3" target="SWkFZKtT8qhRzF46knFM-60">
          <mxGeometry width="50" height="50" relative="1" as="geometry">
            <mxPoint x="740" y="280" as="sourcePoint" />
            <mxPoint x="790" y="230" as="targetPoint" />
          </mxGeometry>
        </mxCell>
        <mxCell id="SWkFZKtT8qhRzF46knFM-97" value="" style="endArrow=none;html=1;rounded=0;edgeStyle=orthogonalEdgeStyle;curved=1;entryX=0;entryY=0.5;entryDx=0;entryDy=0;" edge="1" parent="1" source="M1r4ebx0J2dWL1zyFGnm-1" target="SWkFZKtT8qhRzF46knFM-37">
          <mxGeometry width="50" height="50" relative="1" as="geometry">
            <mxPoint x="780" y="140" as="sourcePoint" />
            <mxPoint x="830" y="90" as="targetPoint" />
            <Array as="points">
              <mxPoint x="605" y="-280" />
            </Array>
          </mxGeometry>
        </mxCell>
        <mxCell id="SWkFZKtT8qhRzF46knFM-101" value="" style="endArrow=classic;html=1;rounded=0;dashed=1;dashPattern=8 8;edgeStyle=orthogonalEdgeStyle;curved=1;exitX=0;exitY=0.5;exitDx=0;exitDy=0;entryX=1;entryY=0.5;entryDx=0;entryDy=0;" edge="1" parent="1" source="SWkFZKtT8qhRzF46knFM-37" target="SWkFZKtT8qhRzF46knFM-49">
          <mxGeometry width="50" height="50" relative="1" as="geometry">
            <mxPoint x="1120" y="-60" as="sourcePoint" />
            <mxPoint x="760" y="-70" as="targetPoint" />
            <Array as="points">
              <mxPoint x="570" y="-280" />
              <mxPoint x="570" y="-180" />
            </Array>
          </mxGeometry>
        </mxCell>
        <mxCell id="SWkFZKtT8qhRzF46knFM-102" value="extend" style="edgeLabel;html=1;align=center;verticalAlign=middle;resizable=0;points=[];" vertex="1" connectable="0" parent="SWkFZKtT8qhRzF46knFM-101">
          <mxGeometry x="-0.0029" y="7" relative="1" as="geometry">
            <mxPoint x="-2" y="31" as="offset" />
          </mxGeometry>
        </mxCell>
        <mxCell id="SWkFZKtT8qhRzF46knFM-103" value="" style="endArrow=classic;html=1;rounded=0;dashed=1;dashPattern=8 8;edgeStyle=orthogonalEdgeStyle;curved=1;" edge="1" parent="1" source="SWkFZKtT8qhRzF46knFM-37" target="SWkFZKtT8qhRzF46knFM-44">
          <mxGeometry width="50" height="50" relative="1" as="geometry">
            <mxPoint x="710" y="-80" as="sourcePoint" />
            <mxPoint x="760" y="-130" as="targetPoint" />
            <Array as="points">
              <mxPoint x="820" y="-280" />
              <mxPoint x="820" y="-387" />
            </Array>
          </mxGeometry>
        </mxCell>
        <mxCell id="SWkFZKtT8qhRzF46knFM-107" value="" style="endArrow=none;html=1;rounded=0;exitX=0.5;exitY=0;exitDx=0;exitDy=0;exitPerimeter=0;" edge="1" parent="1" source="M1r4ebx0J2dWL1zyFGnm-1" target="SWkFZKtT8qhRzF46knFM-38">
          <mxGeometry width="50" height="50" relative="1" as="geometry">
            <mxPoint x="610" y="176" as="sourcePoint" />
            <mxPoint x="760" y="120" as="targetPoint" />
          </mxGeometry>
        </mxCell>
        <mxCell id="SWkFZKtT8qhRzF46knFM-108" value="" style="endArrow=classic;html=1;rounded=0;edgeStyle=orthogonalEdgeStyle;curved=1;dashed=1;dashPattern=8 8;" edge="1" parent="1" source="SWkFZKtT8qhRzF46knFM-38" target="SWkFZKtT8qhRzF46knFM-39">
          <mxGeometry width="50" height="50" relative="1" as="geometry">
            <mxPoint x="780" y="40" as="sourcePoint" />
            <mxPoint x="830" y="-10" as="targetPoint" />
            <Array as="points">
              <mxPoint x="1290" y="213" />
              <mxPoint x="1290" y="-442" />
            </Array>
          </mxGeometry>
        </mxCell>
        <mxCell id="SWkFZKtT8qhRzF46knFM-109" value="" style="endArrow=none;html=1;rounded=0;exitX=0.5;exitY=0;exitDx=0;exitDy=0;exitPerimeter=0;edgeStyle=orthogonalEdgeStyle;curved=1;" edge="1" parent="1" source="M1r4ebx0J2dWL1zyFGnm-1" target="SWkFZKtT8qhRzF46knFM-56">
          <mxGeometry width="50" height="50" relative="1" as="geometry">
            <mxPoint x="840" y="130" as="sourcePoint" />
            <mxPoint x="890" y="80" as="targetPoint" />
            <Array as="points">
              <mxPoint x="605" y="-320" />
            </Array>
          </mxGeometry>
        </mxCell>
        <mxCell id="SWkFZKtT8qhRzF46knFM-110" value="" style="endArrow=none;html=1;rounded=0;exitX=0.5;exitY=0;exitDx=0;exitDy=0;exitPerimeter=0;" edge="1" parent="1" source="M1r4ebx0J2dWL1zyFGnm-1" target="SWkFZKtT8qhRzF46knFM-50">
          <mxGeometry width="50" height="50" relative="1" as="geometry">
            <mxPoint x="840" y="30" as="sourcePoint" />
            <mxPoint x="890" y="-20" as="targetPoint" />
          </mxGeometry>
        </mxCell>
        <mxCell id="SWkFZKtT8qhRzF46knFM-111" value="" style="endArrow=classic;html=1;rounded=0;edgeStyle=orthogonalEdgeStyle;curved=1;dashed=1;dashPattern=8 8;" edge="1" parent="1" source="SWkFZKtT8qhRzF46knFM-37" target="SWkFZKtT8qhRzF46knFM-63">
          <mxGeometry width="50" height="50" relative="1" as="geometry">
            <mxPoint x="890" y="-80" as="sourcePoint" />
            <mxPoint x="940" y="-130" as="targetPoint" />
            <Array as="points">
              <mxPoint x="770" y="-280" />
              <mxPoint x="770" y="40" />
            </Array>
          </mxGeometry>
        </mxCell>
        <mxCell id="SWkFZKtT8qhRzF46knFM-112" value="include" style="edgeLabel;html=1;align=center;verticalAlign=middle;resizable=0;points=[];" vertex="1" connectable="0" parent="SWkFZKtT8qhRzF46knFM-111">
          <mxGeometry x="-0.0185" y="2" relative="1" as="geometry">
            <mxPoint as="offset" />
          </mxGeometry>
        </mxCell>
        <mxCell id="SWkFZKtT8qhRzF46knFM-113" value="" style="endArrow=none;html=1;rounded=0;edgeStyle=orthogonalEdgeStyle;curved=1;" edge="1" parent="1" source="M1r4ebx0J2dWL1zyFGnm-2" target="SWkFZKtT8qhRzF46knFM-71">
          <mxGeometry width="50" height="50" relative="1" as="geometry">
            <mxPoint x="890" y="160" as="sourcePoint" />
            <mxPoint x="940" y="110" as="targetPoint" />
            <Array as="points">
              <mxPoint x="1390" y="420" />
              <mxPoint x="1390" y="-165" />
            </Array>
          </mxGeometry>
        </mxCell>
        <mxCell id="SWkFZKtT8qhRzF46knFM-114" value="" style="endArrow=none;html=1;rounded=0;exitX=0.5;exitY=0;exitDx=0;exitDy=0;exitPerimeter=0;" edge="1" parent="1" source="M1r4ebx0J2dWL1zyFGnm-3" target="SWkFZKtT8qhRzF46knFM-55">
          <mxGeometry width="50" height="50" relative="1" as="geometry">
            <mxPoint x="770" y="20" as="sourcePoint" />
            <mxPoint x="820" y="-30" as="targetPoint" />
          </mxGeometry>
        </mxCell>
      </root>
    </mxGraphModel>
  </diagram>
</mxfile>
